<?xml version="1.0" encoding="utf-8"?>
<!-- Generator: Adobe Illustrator 23.0.1, SVG Export Plug-In . SVG Version: 6.00 Build 0)  -->
<svg version="1.1" id="Layer_1" xmlns="http://www.w3.org/2000/svg" xmlns:xlink="http://www.w3.org/1999/xlink" x="0px" y="0px"
	 viewBox="0 0 2992.6 737.3" style="enable-background:new 0 0 2992.6 737.3;" xml:space="preserve">
<style type="text/css">
	.st0{fill:#FFFFFF;}
	.st1{fill-rule:evenodd;clip-rule:evenodd;fill:#FFA000;}
	.st2{fill-rule:evenodd;clip-rule:evenodd;fill:#FFC107;}
	.st3{fill-rule:evenodd;clip-rule:evenodd;fill:#1976D2;}
	.st4{fill-rule:evenodd;clip-rule:evenodd;fill:#1E88E5;}
	.st5{fill-rule:evenodd;clip-rule:evenodd;fill:#E53935;}
	.st6{fill-rule:evenodd;clip-rule:evenodd;fill:#C62828;}
	.st7{fill-rule:evenodd;clip-rule:evenodd;fill:#F1F6E2;}
	.st8{fill-rule:evenodd;clip-rule:evenodd;fill:#CEDBE6;}
	.st9{fill-rule:evenodd;clip-rule:evenodd;fill:#FFFFFF;}
</style>
<title>logo-horizontal-white</title>
<path class="st0" d="M1960.9,589.8c39.4,0,70.1-7.2,92-21.6c21.9-14.4,32.9-37.7,32.9-70c0-18.6-3.5-34.1-10.6-46.5
	c-7-12.4-16.6-23.1-28.1-31.5c-12.4-8.9-25.9-16.3-40.2-21.9c-15.1-6.1-30.9-12.5-47.5-19.3c-19.2-7.4-38-15.9-56.2-25.5
	c-16.6-8.7-30.7-18.6-42.4-29.5c-11.4-10.6-20.5-23.4-26.7-37.7c-6.1-14.2-9.1-30.7-9.1-49.8c0-43.4,14.4-76.3,43.1-98.8
	c28.8-22.4,68.8-33.7,120-33.7c13.5,0,26.9,1,40.2,2.9c12.5,1.8,24.8,4.4,36.9,7.7c10.7,2.9,21.2,6.5,31.4,10.6
	c8.3,3.3,16.3,7.5,23.8,12.4l-17.6,41.8c-14.1-9.7-31.3-17.6-51.6-23.4c-20.2-5.9-42.1-8.8-65.4-8.8c-14.9-0.1-29.7,1.5-44.3,4.8
	c-13.4,3.2-25,8.3-34.7,15.4c-9.6,7-17.5,16.1-23,26.7c-5.6,10.7-8.4,23.6-8.4,38.8c0,15.6,2.9,28.8,8.8,39.5
	c6,10.9,14.4,20.4,24.5,27.8c11.5,8.4,23.9,15.5,36.9,21.2c14.1,6.4,29.5,12.9,46,19.8c20,8.3,38.8,16.6,56.6,24.9
	c16.7,7.6,32.3,17.5,46.4,29.3c13.2,11.3,23.9,25.3,31.4,41c7.8,16.1,11.7,35.9,11.7,59.3c0,45.8-15.9,80.2-47.9,103.2
	c-31.9,22.9-75.1,34.4-129.6,34.4c-17.8,0.1-35.7-1.1-53.3-3.7c-14.5-2.1-28.9-5.2-43.1-9.2c-11-3.1-21.7-6.8-32.1-11.3
	c-7-3-13.9-6.5-20.5-10.3l16.1-43.2c4.9,2.9,11.4,6.3,19.7,10.2c9.5,4.4,19.2,8.2,29.2,11.3c12.4,4,25.1,7,38,9.2
	C1929.6,588.7,1945.2,589.9,1960.9,589.8z"/>
<path class="st0" d="M2348.2,622.3v-209c-34.7-53.1-66.5-104.5-95.6-153.9s-56.1-97.6-80.9-144.4h57.6
	c20.5,42.9,43.2,86.4,67.9,130.5s50.5,86.1,77.4,126.1c25.9-40,51.3-82,76.3-126.1s47.9-87.6,68.9-130.5h54.1
	c-25.9,46.3-53.3,94.5-82.1,144.4c-28.8,50-60.1,100.8-93.8,152.5v210.5L2348.2,622.3L2348.2,622.3z"/>
<path class="st0" d="M2755.9,589.8c39.4,0,70.1-7.2,92-21.6s32.9-37.7,32.9-70c0-18.6-3.5-34.1-10.6-46.5
	c-7-12.4-16.6-23.1-28.1-31.5c-12.4-8.9-25.9-16.3-40.2-21.9c-15.1-6.1-30.9-12.5-47.5-19.3c-19.2-7.4-38-15.9-56.3-25.5
	c-16.5-8.7-30.7-18.6-42.4-29.5c-11.4-10.6-20.5-23.4-26.7-37.7c-6.1-14.2-9.1-30.7-9.1-49.8c0-43.4,14.4-76.3,43.1-98.8
	c28.8-22.4,68.8-33.7,120-33.7c13.5,0,26.9,1,40.2,2.9c12.5,1.8,24.8,4.4,36.9,7.7c10.7,2.9,21.2,6.5,31.4,10.6
	c8.3,3.3,16.3,7.5,23.8,12.4l-17.6,41.8c-14.1-9.7-31.3-17.6-51.6-23.4c-20.2-5.9-42.1-8.8-65.5-8.8c-14.9-0.1-29.7,1.5-44.3,4.8
	c-13.4,3.2-25,8.3-34.7,15.4c-9.6,7-17.5,16.1-23,26.7c-5.6,10.7-8.4,23.6-8.4,38.8c0,15.6,2.9,28.8,8.8,39.5
	c6,10.9,14.4,20.4,24.5,27.8c11.5,8.4,23.9,15.5,36.9,21.2c14.1,6.4,29.5,12.9,46,19.8c20,8.3,38.8,16.6,56.6,24.9
	c16.7,7.6,32.3,17.5,46.4,29.3c13.2,11.3,23.9,25.3,31.4,41c7.8,16.1,11.7,35.9,11.7,59.3c0,45.8-15.9,80.2-47.9,103.2
	c-31.9,22.9-75.1,34.4-129.6,34.4c-17.8,0.1-35.7-1.1-53.3-3.7c-14.5-2.1-28.9-5.2-43.1-9.2c-11-3.1-21.7-6.8-32.1-11.3
	c-7-3-13.9-6.5-20.5-10.3l16.1-43.2c4.9,2.9,11.4,6.3,19.7,10.2c9.5,4.4,19.2,8.2,29.2,11.3c12.4,4,25.1,7,38,9.2
	C2724.6,588.7,2740.2,589.9,2755.9,589.8z"/>
<path class="st0" d="M884.8,622.3V114.9h343v95.9H999.3v99.4h202.5v93.7H999.3v122.5h245v95.8H884.8V622.3z"/>
<path class="st0" d="M1773.1,368.2c0,43.9-6.8,82.2-20.5,114.9s-33.1,59.8-58.2,81.2c-25.2,21.5-55.8,37.6-91.9,48.3
	s-76.7,16.1-121.6,16.1c-20.5,0-44.4-0.8-71.8-2.5c-27.1-1.7-54-5.2-80.6-10.6V121.7c27.2-5,54.8-8.3,82.4-9.9
	c28.6-1.7,53.1-2.6,73.6-2.6c43.5,0,82.9,4.9,118.3,14.6c35.4,9.8,65.8,25.1,91.2,46.1c25.4,21,44.9,47.8,58.6,80.5
	C1766.2,283.1,1773.1,322.4,1773.1,368.2z M1443,529.3c5.3,0.5,11.5,0.9,18.6,1.1c7.1,0.2,15.5,0.4,25.2,0.4
	c57,0,99.2-14.4,126.8-43.2c27.5-28.8,41.3-68.6,41.3-119.3c0-53.2-13.2-93.5-39.5-120.8s-67.9-41-124.9-41
	c-7.8,0-15.8,0.1-24.1,0.4c-7.8,0.2-15.6,0.8-23.4,1.8V529.3z"/>
<g>
	<title>edsys</title>
	<g id="logo_1_">
		<path class="st1" d="M419.2,0v142.6L223.3,256.4l-123.9-72L419.2,0z"/>
		<path class="st2" d="M739,184.4l-123.9,72L419.2,142.6V0L739,184.4z"/>
		<path class="st3" d="M739,553.1l-123.9-72V256.4l123.9-72V553.1z"/>
		<path class="st4" d="M419.2,737.5V594.9l195.9-113.8l123.9,72L419.2,737.5z"/>
		<path class="st5" d="M99.4,553.1l123.9-72l195.9,113.8v142.6L99.4,553.1z"/>
		<path class="st6" d="M99.4,184.4l123.9,72v224.7l-123.9,72V184.4z"/>
		<path class="st7" d="M223.3,256.4l195.9-113.8l195.9,113.8L419.2,368.8L223.3,256.4z"/>
		<path class="st8" d="M419.2,368.8l195.9-112.4v224.7L419.2,594.9V368.8z"/>
		<path class="st9" d="M223.3,256.4l195.9,112.4v226.1L223.3,481.1V256.4z"/>
	</g>
</g>
</svg>
